<svg width="44" height="34" viewBox="0 0 44 34" fill="none" xmlns="http://www.w3.org/2000/svg">
<path d="M30.8 33.0489C34.3904 29.6404 37.3971 24.9754 37.3511 19.8489L24.1511 19.8489L24.1511 -2.46234e-05L44 -2.28882e-05L44 20.8755C44 21.4231 43.4339 23.1176 43.2197 23.7131C41.9985 27.1079 39.6596 30.2818 37.4 33.0489L30.8 33.0489Z" fill="#0C264D"/>
<path d="M6.64886 33.0489C10.2168 29.5504 13.1394 25.0233 13.2 19.8489L-3.12709e-05 19.8489L-2.95357e-05 -2.46239e-05L19.8489 -2.28886e-05L19.8538 19.9027C19.6494 23.5801 17.4514 27.3396 15.3726 30.2837C14.7097 31.2234 13.9284 32.1092 13.2978 33.0489L6.64886 33.0489Z" fill="#0C264D"/>
</svg>
