<svg width="38" height="37" viewBox="0 0 38 37" fill="none" xmlns="http://www.w3.org/2000/svg">
<path d="M37.0131 14.628V15.0801C36.4004 15.952 35.1949 16.1219 34.3864 16.7477C34.191 16.8991 34.0774 16.9674 34.0519 17.2353C33.9972 17.8088 33.9865 19.225 34.0532 19.7858C34.0885 20.0824 34.4469 20.2812 34.6839 20.4289C35.4525 20.907 36.4728 21.1287 37.0131 21.901V22.3532C36.9402 22.6708 36.8802 22.9913 36.7958 23.3069C36.6757 23.7554 36.2741 25.0597 35.9647 25.3522C35.5549 25.7394 34.2531 25.4966 33.7063 25.474C33.3492 25.4592 32.6016 25.4028 32.3469 25.6386C32.0392 25.9233 30.976 27.6353 30.8764 28.0311C30.8106 28.2923 30.978 28.552 31.1031 28.7754C31.5084 29.4987 32.3436 30.3434 32.2021 31.2461C32.1358 31.669 30.9484 32.6001 30.5736 32.8643C30.2881 33.0655 29.6351 33.5312 29.3072 33.5329C28.7048 33.5353 27.7013 32.5462 27.1792 32.2052C26.8883 32.0151 26.5966 31.7982 26.2341 31.8546C25.784 31.9246 24.3032 32.6902 23.9062 32.9783C23.582 33.2132 23.5914 33.3276 23.5375 33.7193C23.433 34.478 23.5577 35.2844 23.3907 36.0377C23.2672 36.5944 22.8513 36.5919 22.3818 36.7549L21.0253 36.9808C20.692 36.9594 20.3262 37.01 19.9979 36.9808C19.8593 36.9684 19.5392 36.9042 19.4104 36.8491C19.0989 36.715 18.9993 36.3134 18.8874 36.0159C18.6969 35.5107 18.3575 34.0891 17.9321 33.8073C17.6564 33.6246 16.3628 33.4662 15.9905 33.4473C15.2495 33.4103 15.0516 33.3876 14.5517 33.9394C13.9102 34.6475 13.4247 35.9896 12.2924 35.9114C11.7444 35.8736 9.91102 35.0227 9.53249 34.624C9.15396 34.2253 9.27411 33.7534 9.36627 33.2749C9.50533 32.5553 9.75673 31.8332 9.91966 31.1165C9.91966 31.0449 9.85053 31.0042 9.80569 30.9605C9.31772 30.4882 8.60099 29.8678 8.05706 29.4633C7.54934 29.0856 7.50861 28.956 6.86635 29.1732C6.4113 29.3271 4.75442 30.1825 4.42198 30.1019C3.8727 29.9681 3.00909 28.6692 2.72972 28.1747C2.43842 27.6587 2.00517 26.9761 2.33309 26.4084C2.75358 25.6801 4.08131 24.9967 4.3076 24.3968C4.41992 24.0989 4.28661 23.625 4.21297 23.3225C4.11833 22.9329 3.63448 21.476 3.35223 21.2658C3.04283 21.0358 1.73691 20.9535 1.28968 20.8625C0.309623 20.663 0.0903246 20.3277 0.024494 19.3336C-0.0162387 18.7165 -0.0483311 17.0888 0.293988 16.6041C0.72847 15.9886 2.37629 16.0532 3.11565 15.8092C3.47896 15.6895 3.53368 15.4402 3.68961 15.1089C3.87723 14.7103 4.0776 14.2058 4.21749 13.7878C4.28908 13.5739 4.51044 12.9719 4.43268 12.7917C4.38371 12.6777 4.0558 12.3223 3.95006 12.2046C3.64806 11.8684 2.10186 10.4745 2.08047 10.1692C2.06648 9.97416 2.45076 9.2994 2.56556 9.09615C2.86467 8.56744 3.75009 7.1488 4.31747 6.98504C4.66185 6.88588 4.93463 7.00932 5.25432 7.12082C5.58883 7.23726 7.1017 7.99842 7.27532 7.97373C7.38024 7.95892 8.19736 7.41335 8.34013 7.30885C8.92027 6.88506 9.4395 6.37323 9.88921 5.81408C9.77565 4.95047 9.25724 3.87907 9.26876 3.02163C9.28028 2.16418 10.6574 1.6075 11.3683 1.33801C13.3885 0.572318 13.4173 1.74163 14.4924 2.97966C15.1174 3.69927 15.4926 3.58283 16.4019 3.49396C16.7438 3.46064 17.772 3.32897 18.0016 3.1212C18.5056 2.6645 18.7438 1.09773 19.0993 0.4386C19.1549 0.335328 19.2232 0.233291 19.3264 0.172809C19.9629 -0.199545 22.6558 0.0724174 23.2187 0.583427C23.3919 0.741009 23.4223 1.10801 23.4503 1.33801C23.5108 1.84038 23.4631 2.32218 23.4923 2.81632C23.5038 3.01052 23.5663 3.62274 23.6466 3.77169C23.7433 3.95025 24.5443 4.38761 24.7653 4.50241C25.092 4.67192 25.9408 5.09365 26.2695 5.13479C26.6242 5.17923 27.0159 4.89204 27.3026 4.69537C27.7766 4.37033 28.7505 3.43677 29.3072 3.45035C29.7672 3.46146 31.0315 4.43328 31.4043 4.76737C31.5911 4.93442 32.033 5.35573 32.1297 5.56228C32.5209 6.39915 31.4891 7.51827 31.1031 8.20702C30.978 8.43043 30.8106 8.69005 30.8764 8.95132C30.9875 9.39156 32.0112 11.0024 32.3477 11.343C32.4814 11.478 32.5703 11.492 32.7579 11.508C33.6117 11.5804 34.4983 11.3558 35.35 11.4228C35.7162 11.4516 35.9215 11.5368 36.1169 11.8479C36.4572 12.3901 36.9476 13.9898 37.0131 14.6292V14.628ZM18.0991 6.91551C10.3097 7.45943 5.18273 15.0246 7.82172 22.4663C9.57528 27.4123 15.2454 30.8322 20.4575 29.8998C25.3619 29.0227 29.029 25.5962 30.0955 20.7169C30.9472 16.8193 29.5265 12.8937 26.6978 10.1696C24.5542 8.10499 21.1002 6.7065 18.0991 6.91592V6.91551Z" fill="black"/>
<path d="M19.7926 21.4896H17.2651C17.2203 21.4896 17.2063 21.59 17.2014 21.6311C17.0672 22.7745 17.2565 24.2586 17.2051 25.4563C17.194 25.7171 17.1738 26.2405 17.1113 26.4717C16.978 26.9642 16.0794 27.0218 16.0139 26.6025C15.8362 25.4633 15.9629 24.1117 15.9312 22.9465C15.9288 22.8494 15.8901 22.7597 15.8868 22.6622C15.8662 22.0816 15.9086 21.4961 15.779 20.9234C15.7486 20.8465 15.5721 20.8243 15.4799 20.7679C14.7241 20.3079 13.5391 18.9518 13.1688 18.1478C12.5648 16.837 12.4957 14.6518 13.0326 13.3138C13.505 12.1371 14.9059 10.7645 16.0662 10.2654C17.0853 9.82685 17.3104 10.0235 17.4083 11.1155C17.5182 12.3375 17.3836 13.5903 17.4482 14.8147C17.4779 15.3735 17.4931 15.7944 17.9465 16.1655C18.4151 16.549 18.5883 16.5543 19.066 16.1824C19.5667 15.7927 19.5593 15.3328 19.5885 14.7325C19.647 13.5323 19.5071 12.2679 19.6285 11.0743C19.7478 9.90008 20.0337 9.85565 21.0529 10.3066C23.0056 11.1702 24.1712 13.0731 24.3127 15.183C24.4913 17.8438 23.5845 19.2324 21.5318 20.7428C21.4692 20.7889 21.368 20.8049 21.3145 20.8543C21.1952 20.9654 21.1631 21.5644 21.1487 21.757C21.0446 23.1654 21.2763 24.9313 21.0138 26.2652C20.9282 26.6992 20.8097 26.9502 20.3082 26.8696C20 26.8198 19.9259 26.3964 19.8856 26.1417C19.7988 25.5953 19.8041 24.8317 19.7906 24.2647C19.7688 23.341 19.8103 22.4132 19.7922 21.4896H19.7926ZM16.2579 11.3414C16.1868 11.3228 16.1756 11.3706 16.1345 11.4027C14.2242 12.874 13.217 14.8271 14.0098 17.2665C15.4013 21.548 21.8214 21.4369 23.0689 17.1024C23.7503 14.7349 22.7501 12.8254 20.9027 11.4027C20.8615 11.371 20.8504 11.3233 20.7793 11.3414C20.7554 13.0052 20.718 14.6654 20.6566 16.3252C20.1057 16.6115 19.1487 17.6191 18.5694 17.701C18.253 17.7459 17.8901 17.4669 17.6416 17.292C17.4857 17.1826 16.4283 16.3609 16.3912 16.2819C16.2727 16.0285 16.3505 14.9645 16.3419 14.6057C16.3394 14.5086 16.2999 14.4185 16.2974 14.3214C16.2707 13.3294 16.2764 12.3333 16.2579 11.341V11.3414Z" fill="black"/>
<path d="M18.469 22.3611C19.3918 22.2829 19.2198 24.099 19.0635 24.6438C18.961 25.0001 18.7302 25.5958 18.2925 25.27C17.8547 24.9441 17.8251 23.92 17.8613 23.4012C17.8897 22.9914 17.9555 22.4047 18.469 22.3615V22.3611Z" fill="black"/>
</svg>
