<svg width="31" height="36" viewBox="0 0 31 36" fill="none" xmlns="http://www.w3.org/2000/svg">
<path d="M9.97348 17.7467C12.787 19.2246 15.8562 19.5522 18.879 18.4843C19.1798 18.3779 20.4435 17.7474 20.5724 17.7481C20.838 17.7502 21.7925 18.1341 22.0976 18.2567C26.4531 20.0087 29.7499 23.7281 30.3909 28.4626C30.6727 30.5435 30.6332 32.0926 28.8468 33.4395C25.2323 36.1649 16.8953 36.0931 12.4968 35.9388C8.72521 35.8071 -0.0239018 35.5979 4.90753e-05 30.2096C0.0268177 24.1817 4.36404 19.3873 9.97348 17.7467Z" fill="black"/>
<path d="M14.4851 0.0294033C20.6785 -0.460885 25.6807 5.25915 23.5068 11.2962C21.2484 17.5664 12.5641 18.8478 8.41215 13.7223C4.0559 8.34388 7.73166 0.563367 14.4851 0.0294033Z" fill="black"/>
</svg>
