<svg width="39" height="35" viewBox="0 0 39 35" fill="none" xmlns="http://www.w3.org/2000/svg">
<path fill-rule="evenodd" clip-rule="evenodd" d="M3.44272 0.136932C2.60791 0.356722 2.0179 0.70277 1.36763 1.35382C0.707676 2.01464 0.369472 2.59993 0.149285 3.4617C0.0058208 4.02357 -0.00111302 4.32247 0.000106011 9.89395C0.00124885 14.7244 0.0207535 15.8295 0.112942 16.271C0.447489 17.8737 1.70918 19.2004 3.38923 19.7162C3.82679 19.8505 4.51759 19.8566 19.5032 19.8566C34.4889 19.8566 35.1797 19.8505 35.6173 19.7162C36.876 19.3298 37.9709 18.439 38.4921 17.3772C39.0273 16.2869 39.0154 16.4699 38.9912 9.68698L38.9696 3.60695L38.7698 3.09261C38.4785 2.34291 38.116 1.78463 37.5982 1.28776C37.0787 0.789358 36.6201 0.501672 35.8931 0.218104L35.3887 0.0213542L19.6937 0.00594381C4.43638 -0.00908519 3.9832 -0.00542338 3.44272 0.136932ZM35.5186 2.16157C35.9845 2.32056 36.4544 2.73748 36.706 3.21498L36.9125 3.60695L36.9333 9.8568C36.9567 16.8994 36.9843 16.5345 36.376 17.2119C36.171 17.4403 35.8845 17.6543 35.6385 17.7627L35.2363 17.94L19.808 17.9541C11.3224 17.9619 4.1448 17.9409 3.85764 17.9077C2.99427 17.8077 2.26704 17.2188 2.04464 16.4394C1.97676 16.2016 1.95238 14.5171 1.95063 9.93896L1.94819 3.75953L2.12007 3.37808C2.39138 2.77608 2.92189 2.29134 3.50306 2.11427C3.60805 2.08231 10.7763 2.05317 19.4325 2.04958C33.478 2.04371 35.2084 2.05576 35.5186 2.16157ZM4.67591 9.97528C4.17154 10.1803 4.03341 10.8682 4.41154 11.2919L4.63386 11.541L19.0044 11.5607C34.8718 11.5824 33.6818 11.6195 33.9305 11.0948C34.0921 10.7539 34.0259 10.4319 33.7374 10.1551L33.5121 9.93896L19.1744 9.92439C11.2888 9.91638 4.76445 9.93927 4.67591 9.97528ZM4.60826 13.3461C4.33009 13.4992 4.19265 13.7421 4.19089 14.0835C4.1896 14.3438 4.23386 14.4583 4.40026 14.6249C4.60369 14.8287 4.64666 14.8377 5.60024 14.8779C6.4147 14.9123 29.4677 14.9057 32.5829 14.8702C33.4513 14.8603 33.5247 14.8476 33.7349 14.6704C34.0114 14.4374 34.0897 14.0978 33.9461 13.7537C33.7223 13.2172 34.9293 13.2573 19.069 13.2598C8.81108 13.2615 4.71751 13.2859 4.60826 13.3461ZM6.49326 21.903C6.09981 22.1218 5.95262 22.6537 6.17189 23.064C6.23124 23.175 6.43985 23.347 6.63542 23.4463C7.1145 23.6894 7.50741 24.1641 7.62063 24.6367C7.75914 25.2148 7.61606 25.7877 7.0425 26.9515C6.47703 28.0989 6.24633 28.9046 6.24633 29.7322C6.24633 31.0587 6.89378 32.3436 7.8978 33.0095C8.29071 33.2701 8.57825 33.3042 8.91447 33.1301C9.19911 32.9828 9.29389 32.8005 9.29389 32.4007C9.29389 32.1024 9.25747 32.0462 8.76865 31.5916C8.11875 30.9872 7.90908 30.5539 7.90908 29.8157C7.90908 29.1162 8.00653 28.7907 8.57261 27.5999C9.19431 26.2923 9.31942 25.8078 9.28071 24.8576C9.25527 24.2339 9.21595 24.0539 9.00796 23.6099C8.71272 22.9796 8.06123 22.3011 7.46947 22.0077C7.01683 21.7833 6.75847 21.7556 6.49326 21.903ZM17.3931 21.9512C16.834 22.2926 16.9135 23.0568 17.5441 23.4024C17.7207 23.4992 17.9638 23.6679 18.0843 23.7773C18.354 24.022 18.6634 24.6588 18.6644 24.971C18.6658 25.4037 18.4304 26.108 17.9772 27.027C17.0691 28.8684 16.975 30.2574 17.6659 31.6247C18.0777 32.44 18.962 33.2453 19.4451 33.2453C19.933 33.2453 20.261 32.9125 20.2635 32.4148C20.2651 32.0983 20.2366 32.0537 19.7399 31.5916C19.0872 30.9845 18.8803 30.5548 18.8803 29.8061C18.8803 29.141 19.0403 28.5999 19.5197 27.6437C20.4159 25.8565 20.5324 24.7948 19.9653 23.5812C19.6846 22.9807 19.0204 22.2952 18.4407 22.0077C17.9482 21.7634 17.7207 21.7512 17.3931 21.9512ZM28.1708 21.9976C27.6301 22.2914 27.5938 23.2786 28.1134 23.5571C28.2506 23.6305 28.265 23.7178 28.265 24.4747C28.265 24.9348 28.2415 25.3113 28.2128 25.3113C28.1841 25.3113 27.8281 25.1211 27.4217 24.8887C26.7915 24.5283 26.6761 24.4319 26.6364 24.2331C26.6108 24.105 26.4831 23.9004 26.3527 23.7784C26.1565 23.5948 26.05 23.5566 25.7351 23.5566C25.404 23.5566 25.321 23.5902 25.0955 23.816C24.8745 24.0373 24.8365 24.1279 24.8365 24.4336C24.8365 25.0783 25.2797 25.452 25.9373 25.3618C26.2369 25.3206 26.3372 25.3527 26.8884 25.6654C27.2274 25.8577 27.522 26.043 27.5431 26.0773C27.5642 26.1115 27.2765 26.3116 26.9037 26.522C26.2689 26.8805 26.2089 26.8994 25.9552 26.8214C25.4081 26.6533 24.8365 27.1131 24.8365 27.7213C24.8365 28.0005 24.8823 28.1099 25.0973 28.3449C25.332 28.6013 25.3963 28.6298 25.7399 28.6298C26.0593 28.6298 26.1603 28.5928 26.3573 28.4039C26.4868 28.2795 26.6198 28.074 26.6526 27.9471C26.7019 27.7564 26.8438 27.6407 27.4696 27.2807L28.2269 26.8451L28.2487 27.6561C28.2696 28.435 28.2631 28.4734 28.0844 28.6248C27.8346 28.8365 27.7317 29.0602 27.7317 29.3915C27.7317 30.2833 28.7113 30.6659 29.3125 30.0088C29.655 29.6347 29.6623 29.1712 29.3317 28.7941C29.1099 28.5412 29.1031 28.5104 29.1031 27.7615C29.1031 27.337 29.1173 26.9896 29.1347 26.9896C29.1521 26.9896 29.4501 27.1533 29.7969 27.3535C30.3044 27.6463 30.4391 27.7623 30.4871 27.9476C30.6216 28.4673 31.2768 28.7961 31.7704 28.5914C32.3276 28.3603 32.5005 27.6177 32.1062 27.1486C31.8765 26.8753 31.5325 26.7638 31.1681 26.8448C30.9436 26.8947 30.8204 26.852 30.2348 26.5215C29.8638 26.3121 29.5612 26.1172 29.5624 26.0883C29.5636 26.0596 29.8577 25.8749 30.216 25.6779C30.8049 25.3542 30.9021 25.324 31.2288 25.3628C31.889 25.441 32.303 25.0883 32.303 24.4474C32.303 24.126 32.2678 24.04 32.044 23.816C31.8161 23.5878 31.7375 23.5566 31.3905 23.5566C31.0558 23.5566 30.9623 23.5905 30.7725 23.7805C30.6495 23.9036 30.528 24.1091 30.5024 24.237C30.463 24.4343 30.3537 24.5265 29.7795 24.8464L29.1031 25.2233V24.4132C29.1031 23.6463 29.1136 23.5922 29.2997 23.3976C29.5536 23.1322 29.6206 22.6742 29.453 22.3497C29.2295 21.9168 28.6249 21.7509 28.1708 21.9976ZM11.8062 23.0128C11.3296 23.4901 11.4816 24.0595 12.1797 24.4118C12.7237 24.6864 12.8628 24.8201 13.0753 25.2731C13.274 25.6967 13.3165 26.4116 13.1749 26.9515C13.1309 27.1193 12.857 27.7544 12.5662 28.3628C12.2755 28.9712 11.9688 29.7405 11.8848 30.0725C11.6019 31.1893 11.7167 32.3421 12.2017 33.2562C12.6726 34.1436 13.6307 35 14.1526 35C14.5175 35 14.933 34.5858 14.9292 34.2257C14.9255 33.8787 14.8128 33.707 14.3303 33.3135C13.7324 32.8261 13.4669 32.311 13.4231 31.5543C13.3732 30.6922 13.5144 30.1491 14.0683 29.0718C15.0839 27.0964 15.2326 25.9344 14.6338 24.6531C14.1892 23.7018 13.0709 22.7937 12.344 22.7937C12.0943 22.7937 11.9774 22.8413 11.8062 23.0128Z" fill="#134083"/>
</svg>
