<svg width="28" height="31" viewBox="0 0 28 31" fill="none" xmlns="http://www.w3.org/2000/svg">
<path d="M13.8485 30.325C13.6452 30.3032 13.4044 30.1721 13.244 30.0483L0.344146 18.329C-0.39887 17.549 0.141799 16.3279 1.19716 16.3184L4.67576 16.3192V0.977326C4.67557 0.545702 5.27844 0.00598075 5.70874 0.00161899L22.2546 0.000481137C22.6986 -0.0186727 23.3246 0.537926 23.3246 0.977326V16.3192L26.8032 16.3184C27.8578 16.3277 28.3988 17.5492 27.6562 18.329L14.7564 30.0483C14.5959 30.1721 14.3551 30.3032 14.1518 30.325C14.0767 30.3331 13.9236 30.3331 13.8485 30.325ZM20.9935 2.33232H7.00664V17.6175C7.00664 18.112 6.40624 18.6694 5.91696 18.6694H4.20184L14.0071 27.5755L23.7985 18.6694H22.0834C21.5939 18.6694 20.9937 18.112 20.9937 17.6175V2.33232H20.9935Z" fill="black"/>
<path d="M15.1778 7.46592C16.2491 7.82396 17.1313 8.72818 17.4061 9.8336C17.4425 9.97981 17.5292 10.3652 17.466 10.489C17.4355 10.5487 17.3378 10.6092 17.2699 10.6151L15.1562 10.6147C15.1742 9.70218 14.0997 9.33048 13.3745 9.71412C12.8035 10.016 12.6577 10.7888 13.0809 11.2783C13.4963 11.7585 14.1031 11.6236 14.6671 11.72C16.768 12.0788 18.1042 14.2274 17.2385 16.2503C16.859 17.1371 16.0847 17.7686 15.1841 18.0811L15.1755 19.5888C15.1543 19.7354 15.0885 19.8124 14.9392 19.8264C14.3305 19.8837 13.6282 19.7858 13.0098 19.8213C12.9042 19.8021 12.8439 19.7073 12.827 19.6062L12.8221 18.3127C11.6979 17.9353 10.7774 16.9529 10.557 15.7734C10.5145 15.546 10.4182 15.2204 10.7307 15.1629L12.8445 15.1633C12.8297 16.0673 13.8704 16.4326 14.6007 16.0764C15.3564 15.7079 15.3451 14.6092 14.5888 14.2433C14.2607 14.0848 13.9768 14.1364 13.6309 14.1019C11.5075 13.8906 10.0311 11.884 10.6266 9.78998C10.9302 8.7223 11.7792 7.93301 12.8168 7.58312L12.8255 6.07566C12.8363 5.96073 12.9167 5.83671 13.0426 5.83784C13.6595 5.88203 14.3508 5.78209 14.9586 5.83784C15.0942 5.85036 15.1583 5.94803 15.1757 6.07566L15.1782 7.46611L15.1778 7.46592Z" fill="black"/>
</svg>
