<svg width="39" height="39" viewBox="0 0 39 39" fill="none" xmlns="http://www.w3.org/2000/svg">
<path d="M20.2586 39.0004H18.7467L16.6638 38.7957C8.12568 37.56 1.27465 30.6266 0.171845 22.0628L0.00736 20.3372C0.0244856 19.782 -0.0157396 19.2207 0.00736 18.6658C0.39846 9.29502 7.64258 1.37693 16.9414 0.167587C29.782 -1.50223 40.6734 9.55194 38.7864 22.3743C37.4279 31.6061 29.5661 38.612 20.2582 39L20.2586 39.0004ZM19.0167 1.92504C5.1072 2.34169 -2.95178 18.097 5.1072 29.5818C12.3083 39.8445 27.6644 39.4907 34.3593 28.8895C41.8651 17.0048 32.9864 1.50639 19.0167 1.92504Z" fill="black"/>
<path d="M27.7675 10.0408C28.6815 9.88589 29.2462 10.7817 28.7492 11.5402L20.1199 20.1796C19.7487 20.5377 19.1581 20.4903 18.7857 20.1593C17.6948 18.9834 16.5124 17.8944 15.4032 16.7376C15.1622 16.4863 14.4179 15.7665 14.3227 15.5104C14.0025 14.6484 14.9209 13.8724 15.7238 14.3476C16.1814 14.6185 16.9421 15.5673 17.3527 15.9816C18.0593 16.6938 18.7757 17.3965 19.4823 18.1087L27.2796 10.3089C27.4106 10.2006 27.5978 10.0695 27.7675 10.0408Z" fill="black"/>
<path d="M32.5029 18.876C33.0207 18.8055 34.5907 18.8055 35.1084 18.876C35.9332 18.9883 35.934 20.0567 35.1084 20.1686C34.5895 20.2391 33.0219 20.2395 32.5029 20.1686C31.6777 20.0563 31.6777 18.9883 32.5029 18.876Z" fill="black"/>
<path d="M3.44254 19.9661C3.03432 19.522 3.36169 18.9308 3.93082 18.8707C4.49995 18.8105 5.90424 18.8014 6.4678 18.8703C7.31651 18.9735 7.31691 20.0717 6.4678 20.1748C5.89389 20.2445 4.55411 20.2318 3.96627 20.1784C3.78266 20.1617 3.56999 20.1051 3.44254 19.9661Z" fill="black"/>
<path d="M19.9259 35.5645C19.5276 35.9425 18.9015 35.6887 18.8291 35.157C18.7602 34.6503 18.7649 33.0115 18.8303 32.4989C18.9294 31.7201 19.9992 31.7385 20.0956 32.4184C20.2138 33.2537 20.0147 34.338 20.0991 35.2004C20.0932 35.3235 20.0139 35.4812 19.9263 35.5645H19.9259Z" fill="black"/>
<path d="M19.926 3.40019C20.0136 3.48344 20.0929 3.64118 20.0989 3.76427C20.0144 4.62666 20.2136 5.71093 20.0953 6.54624C19.9993 7.225 18.9351 7.24531 18.8292 6.46657C18.7627 5.97941 18.7627 4.29445 18.8292 3.80729C18.9017 3.27551 19.5277 3.02177 19.926 3.39979V3.40019Z" fill="black"/>
</svg>
