<svg width="36" height="37" viewBox="0 0 36 37" fill="none" xmlns="http://www.w3.org/2000/svg">
<path d="M18.6037 0.489502L19.6563 0.569373C27.8127 1.34385 34.535 7.81343 35.6051 15.9333L35.7696 17.6166V19.0868L35.6898 20.1395C34.8915 28.5462 28.0631 35.3762 19.6559 36.1734L18.643 36.2532H17.1727L15.4497 36.0887C7.58577 35.0512 1.20321 28.6782 0.171236 20.8094L0.00672513 19.0864C0.0222226 18.5981 -0.0143355 18.1037 0.00672513 17.6162C0.408864 8.36657 7.8834 0.891641 17.1334 0.489502H18.6037ZM17.5224 4.39525C6.33803 4.73381 -0.0342042 17.4469 6.57088 26.5693C12.839 35.2268 26.2042 33.8773 30.6114 24.1597C34.8644 14.7825 27.7889 4.08451 17.5228 4.39525H17.5224Z" fill="black"/>
<path d="M11.4282 23.4406C10.4188 22.4579 9.43893 21.4422 8.41093 20.4774C6.26275 17.9851 9.44449 14.7596 11.9491 16.7803L15.086 19.9231L15.1611 19.9576L23.8678 11.2572C26.3641 9.24294 29.4867 12.4223 27.464 14.8931L16.9957 25.3662C14.7045 27.33 12.9755 24.9478 11.4282 23.4414V23.4406Z" fill="black"/>
</svg>
