<svg width="43" height="41" viewBox="0 0 43 41" fill="none" xmlns="http://www.w3.org/2000/svg">
<path d="M26.9787 15.9246C25.9754 15.7893 25.915 14.3291 26.941 14.1503L34.5869 14.1466C34.8493 14.176 35.0447 14.3233 35.2044 14.5216L38.1761 21.4941C39.5526 22.6128 41.9494 23.2721 42.0934 25.3295V36.2488C42.0508 36.7239 41.7139 37.0471 41.2433 37.0943C40.4416 37.175 39.5207 37.031 38.7062 37.1001C38.3263 38.6575 37.1029 39.936 35.5347 40.3168C33.1359 40.8991 30.8397 39.446 30.2408 37.0923H15.6542C14.9494 39.9546 11.703 41.3663 9.14066 39.7998C8.15108 39.1947 7.48102 38.2163 7.18799 37.1005C7.10894 37.05 5.5805 37.1204 5.31066 37.0964C5.00811 37.0695 4.70516 36.858 4.59755 36.5691C4.57603 36.5112 4.50608 36.2467 4.50608 36.2057V33.5387C3.97922 33.5979 3.49292 33.475 3.3253 32.9208L3.30957 28.9311C3.49499 28.1977 4.49408 28.0023 4.91292 28.6459C4.93651 28.6819 5.04371 28.9104 5.04371 28.9286V31.74L27.95 31.7607V15.9246C27.6454 15.8952 27.2738 15.9643 26.9783 15.9246H26.9787ZM33.904 15.9246H29.728V21.2172H34.1317C34.202 21.2172 34.5439 21.4209 34.6068 21.4863C35.0049 21.9001 34.8642 22.6327 34.3552 22.8876C34.3146 22.9079 34.0704 22.9948 34.0489 22.9948H29.728V31.7603H40.3129V25.2894C40.3129 25.2045 40.1217 24.9239 40.0439 24.8556C38.9641 24.0717 37.7506 23.4422 36.7391 22.5785L33.904 15.9242V15.9246ZM7.89696 33.5383H6.2845V35.3163H7.15281C7.23476 34.9695 7.32954 34.6218 7.47646 34.2961C7.59649 34.0296 7.77404 33.8011 7.89696 33.5383ZM11.2787 33.5511C7.86799 33.7473 8.19578 38.9563 11.6794 38.665C14.8993 38.3955 14.622 33.3591 11.2787 33.5511ZM30.9684 33.5383H14.9258C15.29 34.0813 15.5528 34.6773 15.694 35.3188H30.199C30.3505 34.681 30.6063 34.0846 30.9684 33.5383ZM34.3092 33.5511C30.9399 33.7444 31.2569 38.9758 34.7512 38.665C37.9509 38.3802 37.7038 33.3562 34.3092 33.5511ZM40.3129 33.5383H37.9973C38.1202 33.8011 38.2977 34.0296 38.4178 34.2961C38.5647 34.6218 38.6595 34.9695 38.7414 35.3163H40.3125V33.5383H40.3129Z" fill="#134083"/>
<path d="M16.902 0.0181582C23.8609 -0.417238 28.5865 7.06356 25.187 13.1823C21.8342 19.2166 13.0592 19.212 9.70887 13.1823C6.53652 7.47205 10.4261 0.423342 16.902 0.0181582ZM16.902 1.79617C11.3735 2.17817 8.43786 8.65739 11.7662 13.1094C14.7842 17.1464 21.0151 16.8165 23.5592 12.4642C26.4592 7.50309 22.6073 1.40174 16.902 1.79617Z" fill="#134083"/>
<path d="M0.262157 22.6906C-0.255601 22.1716 0.0361811 21.276 0.764187 21.1754H11.5974C12.6656 21.3994 12.5878 22.8429 11.4728 22.953L0.928082 22.9551C0.685551 22.9365 0.437226 22.8661 0.262157 22.6906Z" fill="#134083"/>
<path d="M2.51113 24.7L9.77381 24.6946C10.8648 24.8457 10.8582 26.3237 9.77795 26.4677L2.54714 26.4635C1.5348 26.3042 1.50459 24.9094 2.51113 24.7Z" fill="#134083"/>
<path d="M5.04351 15.9247V18.7568C5.04351 19.0482 4.56713 19.4115 4.27866 19.4393C3.63136 19.5014 3.3073 19.0117 3.26384 18.4278C3.19721 17.5338 3.19721 16.0521 3.26384 15.1582C3.30151 14.6507 3.513 14.2096 4.07173 14.1466C5.25458 14.0138 6.72467 14.2232 7.93028 14.1752C8.71127 14.3867 8.8255 15.4537 8.09956 15.8175C8.059 15.8377 7.81481 15.9247 7.79329 15.9247H5.04351Z" fill="#134083"/>
<path d="M19.2925 5.7789C19.6613 5.41014 20.4249 4.52155 20.8243 4.27115C21.6636 3.74471 22.6254 4.7885 21.9144 5.6506C20.8056 6.99487 19.1828 8.20007 18.0277 9.5373C17.6482 9.82867 17.248 9.82908 16.868 9.5373C16.1649 8.68265 15.0259 7.89008 14.3666 7.03584C13.8447 6.35998 14.3885 5.42794 15.2589 5.6059C15.6305 5.68205 16.2795 6.47752 16.5783 6.76723C16.8771 7.05695 17.19 7.31189 17.4686 7.61278C18.0844 7.00977 18.6833 6.38813 19.2925 5.7789Z" fill="#134083"/>
</svg>
