<svg width="40" height="41" viewBox="0 0 40 41" fill="none" xmlns="http://www.w3.org/2000/svg">
<path d="M22.2474 3.62571H24.7251C24.8801 3.62571 25.1773 3.96456 25.1773 4.11408V5.68743H30.802C31.2984 5.68743 32.0691 6.19354 32.3747 6.57439C33.1747 7.57212 32.6643 9.41699 32.8105 10.6258C32.7287 11.2944 31.6969 11.2948 31.6151 10.6258C31.5127 9.7877 31.7831 8.38305 31.5702 7.63222C31.4815 7.31907 31.0145 6.91758 30.6934 6.91758H25.1773V8.78055C25.1773 8.79648 25.0835 8.99632 25.0629 9.02782C24.9333 9.22584 24.7027 9.2997 24.4735 9.30657H8.33777C8.13214 9.35472 7.66984 9.03976 7.66984 8.85296V6.91758H2.11749C2.09939 6.91758 1.81846 7.02728 1.77755 7.04791C1.45173 7.2101 1.24465 7.50696 1.23017 7.87513V37.8644C1.28411 38.4874 1.82135 38.8068 2.4053 38.8234L30.4063 38.8227C31.1018 38.7865 31.5626 38.4882 31.6173 37.7558C31.7179 36.4073 31.496 34.894 31.6144 33.5571C31.6781 32.8384 32.6599 32.8113 32.8105 33.4854C32.7204 34.9776 32.9278 36.6053 32.8109 38.0813C32.7323 39.0721 31.849 39.8483 30.8998 40.0047C21.3731 40.1147 11.8298 40.0184 2.29669 40.0528C1.10129 39.9725 0.0952268 39.1717 1.47283e-05 37.9361V7.7658C-0.00469157 6.78472 1.11939 5.68743 2.08129 5.68743H7.61553C7.61952 5.68743 7.66984 5.63711 7.66984 5.63313V4.04167C7.66984 3.88492 7.99892 3.65105 8.16146 3.62897C8.86524 3.53339 9.76595 3.71078 10.4752 3.62752C10.5117 3.62317 10.6001 3.61086 10.6001 3.5714V2.81188C10.6001 2.66164 10.7876 2.10955 10.8585 1.94882C12.1383 -0.947731 16.5032 0.326228 18.9751 0.0431263C20.4529 0.0315416 22.2471 1.40904 22.2471 2.95633V3.62535L22.2474 3.62571ZM11.8298 2.88392C11.8023 3.11453 11.8498 3.38967 11.8298 3.62535H20.9633C20.9673 3.62535 21.0176 3.57502 21.0176 3.57104V2.95596C21.0176 2.23988 19.9884 1.3656 19.2893 1.32034C17.5469 1.29898 15.7625 1.19183 14.0168 1.27219C13.098 1.31455 11.9511 1.86193 11.8298 2.88356V2.88392ZM23.9475 4.8555H8.89963V8.07497H23.9471V4.8555H23.9475Z" fill="#134083"/>
<path d="M30.0107 10.9462C30.4075 11.3223 30.7775 11.7267 31.1985 12.0761L33.7692 11.5102C34.1222 11.5131 34.3192 11.6453 34.427 11.9733C34.6334 12.6003 34.6866 13.3595 34.8778 14.0002L36.9167 14.5114C37.249 14.6493 37.3301 14.9082 37.291 15.2507C37.2179 15.8893 36.8334 16.6832 36.7603 17.3265C36.7556 17.3692 36.7414 17.4101 36.7585 17.4528L38.4531 19.1247C38.6109 19.3629 38.5834 19.6206 38.4165 19.8484L36.5865 21.7642L37.1465 24.3385C37.1904 24.681 36.9807 24.912 36.673 25.0137C36.403 25.1031 34.7424 25.3906 34.6725 25.4731L34.1403 27.5095C34.027 27.7423 33.7917 27.9291 33.5194 27.894L31.2079 27.3234L29.6081 28.9818C29.3913 29.1429 29.1643 29.1809 28.9138 29.0615C28.2144 28.4783 27.5877 27.8042 26.9234 27.1793C26.8803 27.1627 26.8394 27.1764 26.797 27.1811C26.035 27.2691 25.1516 27.6344 24.3957 27.7119C24.0399 27.7484 23.7796 27.6547 23.6594 27.2981L23.2177 25.262L21.1893 24.74C20.9138 24.6376 20.7426 24.3798 20.7668 24.0848L21.337 21.8083L19.6424 20.1376C19.4918 19.924 19.4918 19.6268 19.6424 19.4136L21.4822 17.4887L20.9493 14.9603C20.8848 14.6533 21.047 14.346 21.3428 14.2413C21.9619 14.0223 22.7605 13.9894 23.3962 13.7808C23.6275 13.0709 23.735 12.3147 24.0037 11.621C24.1934 11.3683 24.3776 11.3325 24.6846 11.3694C25.3167 11.4447 26.0875 11.8104 26.7228 11.8998C26.7775 11.9074 26.8343 11.9222 26.889 11.9027L28.4678 10.2613C28.6361 10.1327 28.8008 10.073 29.0133 10.1154C29.2657 10.166 29.7917 10.7377 30.0104 10.9451L30.0107 10.9462ZM35.9569 15.5265C35.4114 15.3589 34.8035 15.2796 34.2652 15.1015C33.9651 15.0023 33.8634 14.9415 33.7605 14.6298C33.6805 14.3876 33.426 12.92 33.3544 12.8646L31.1551 13.3464C30.9719 13.3757 30.7735 13.3613 30.6214 13.2476L28.9167 11.6221C28.8685 11.6138 28.3027 12.1981 28.2154 12.2879C27.9113 12.6003 27.4613 13.2791 26.986 13.2327L24.9594 12.7194C24.8884 12.7751 24.5876 14.2316 24.5011 14.4694C24.4175 14.6993 24.2983 14.8217 24.0648 14.9013L22.2841 15.2731L22.7873 17.6114C22.8166 17.8084 22.7123 17.9857 22.5921 18.1313C22.4339 18.3604 21.0409 19.6348 21.021 19.7455C21.0134 19.7875 21.0481 19.8064 21.0706 19.8328L22.4484 21.1317C22.6037 21.3171 22.6664 21.4756 22.6367 21.7207C22.6037 21.9904 22.0933 23.621 22.1544 23.7032C22.695 23.9255 23.4045 23.9595 23.932 24.1698C24.2285 24.2882 24.2792 24.4746 24.3581 24.7567C24.504 25.2776 24.5789 25.8492 24.7092 26.3771L27.0461 25.8753C27.1775 25.854 27.3082 25.8981 27.419 25.964L29.1748 27.6438L30.6388 26.1425C30.7797 26.0205 30.9762 25.9937 31.1551 26.0263L33.1339 26.5223C33.3098 25.9839 33.3822 25.3616 33.5596 24.8309C33.6577 24.5369 33.7356 24.4305 34.0393 24.3338C34.5878 24.1597 35.2503 24.1094 35.8129 23.9544L35.3165 21.7204C35.2876 21.4514 35.3024 21.3439 35.4689 21.1332C35.8715 20.6231 36.5641 20.1206 36.9529 19.6152C36.9855 19.5729 37.0242 19.5359 37.0376 19.4816L37.0097 19.415L35.5772 18.0241C35.3871 17.7761 35.4226 17.6563 35.4762 17.3786C35.5946 16.765 35.8349 16.1441 35.958 15.5276L35.9569 15.5265Z" fill="#134083"/>
<path d="M14.2531 18.221C14.2575 18.1997 14.374 17.9955 14.3972 17.9672C14.7274 17.5672 15.4246 17.7866 15.4735 18.3028C15.4127 19.361 15.5879 20.581 15.4825 21.6208C15.4583 21.8608 15.3399 22.09 15.105 22.1837C11.7696 22.2478 8.40934 22.2279 5.07185 22.1939C4.7797 22.0867 4.68919 21.8391 4.66638 21.5502L4.67181 11.9312C4.71888 11.567 4.93862 11.3672 5.30137 11.3306H14.8501C15.3689 11.3455 15.673 11.9435 15.3395 12.3515C15.303 12.3961 15.0789 12.5601 15.0315 12.5601H5.95229C5.94831 12.5601 5.89798 12.6104 5.89798 12.6144V21.0245H14.2538V18.221H14.2531Z" fill="#134083"/>
<path d="M36.6082 33.9741C36.6038 34.0516 36.6158 34.1312 36.6075 34.209C36.5195 35.0323 36.4402 35.9279 36.3178 36.741C36.2762 37.0176 36.2806 37.2511 36.0264 37.4263C35.622 37.7055 35.2763 37.5013 35.0823 37.1092C34.8882 36.7171 34.7297 36.2523 34.5649 35.8541C33.5998 33.5165 32.6842 31.1576 31.7274 28.8167C31.6105 28.1549 32.459 27.7853 32.8395 28.3555L35.3237 34.4082L35.5384 32.6697C35.622 32.3642 35.8592 32.1455 36.1904 32.164C36.5499 32.1839 37.1512 32.8573 37.4586 33.069L37.9097 33.3952L35.1767 26.6699C35.0204 25.9314 35.9743 25.5983 36.3244 26.2456L40.0054 35.3349C39.9844 35.9667 39.4675 36.2201 38.9414 35.8548C38.4502 35.5134 37.9328 35.0102 37.4564 34.6268C37.1795 34.4038 36.8993 34.1783 36.6078 33.9748L36.6082 33.9741Z" fill="#134083"/>
<path d="M20.2942 33.54L21.6699 32.2936C22.0066 32.0822 22.458 32.2197 22.5905 32.5999C22.7628 33.0951 22.7657 33.8242 22.8982 34.3539C22.9109 34.4042 22.8979 34.4668 22.9703 34.4806C23.0293 34.2062 23.1292 33.9307 23.2233 33.666C23.8453 31.9149 24.4803 30.1678 25.099 28.4156C25.4494 27.7687 26.412 28.1213 26.2462 28.8395C25.2267 31.4776 24.4488 34.2228 23.4058 36.8504C23.3254 37.0527 23.291 37.2508 23.1165 37.393C22.8182 37.636 22.3237 37.5444 22.1684 37.182L21.596 34.0465C20.9701 34.5367 20.4194 35.1279 19.8246 35.6564C19.5039 35.9413 19.1506 36.3848 18.677 36.1879C18.3592 36.0557 18.294 35.723 18.3494 35.411L21.4335 26.2688C21.7673 25.6001 22.7433 25.9564 22.593 26.6688L20.2949 33.5397L20.2942 33.54Z" fill="#134083"/>
<path d="M3.64628 29.6791L16.4069 29.6682C17.2037 29.691 17.3337 30.7264 16.5513 30.9002H3.59958C2.88531 30.7546 2.90703 29.7848 3.64592 29.6787L3.64628 29.6791Z" fill="#134083"/>
<path d="M3.57287 33.9462L16.5865 33.9379C17.3254 34.0722 17.2736 35.0866 16.5145 35.168L3.7803 35.1691C3.02657 35.134 2.85896 34.221 3.57287 33.9462Z" fill="#134083"/>
<path d="M3.50009 25.4456L16.5141 25.4372C17.1831 25.5136 17.207 26.5074 16.551 26.6319H3.52761C2.88393 26.4922 2.87488 25.6266 3.50045 25.4456H3.50009Z" fill="#134083"/>
<path d="M9.20197 19.348L7.50625 15.9979C7.32813 15.3071 8.09237 14.9103 8.57494 15.3994L9.89452 17.9857L14.9882 14.2902C15.5884 13.9249 16.244 14.7105 15.7557 15.2387C15.7003 15.2988 15.6 15.3567 15.5309 15.4118C13.7504 16.8298 11.7311 18.0661 9.92529 19.4635C9.6954 19.5728 9.39058 19.5211 9.20197 19.3484V19.348Z" fill="#134083"/>
<path d="M28.6063 14.0899C33.2467 13.7413 36.2381 18.9233 33.5986 22.772C31.2813 26.1511 26.1424 25.8781 24.1817 22.2912C22.2542 18.7651 24.6175 14.3901 28.6063 14.0903V14.0899ZM26.0606 22.7456C28.2917 24.8522 31.9474 24.0373 33.0635 21.1881C34.4465 17.6584 30.866 14.1685 27.3707 15.6401C24.5285 16.8366 23.8041 20.615 26.0606 22.7456Z" fill="#134083"/>
<path d="M26.058 18.8307C26.2788 18.6272 26.6709 18.6106 26.8946 18.8187L28.2699 20.6621L30.5844 18.1663C30.9381 17.8811 31.2103 17.2935 31.7508 17.4713C32.2352 17.6302 32.2482 18.166 31.9597 18.5291C31.3935 19.2423 30.5384 20.0195 29.8969 20.6983C29.524 21.0933 29.1786 21.5274 28.7952 21.9115C28.4622 22.2449 28.0998 22.3937 27.7269 22.0013C27.2516 21.2081 26.4171 20.4149 25.9791 19.6253C25.8299 19.3563 25.8198 19.0497 26.0576 18.8303L26.058 18.8307Z" fill="#134083"/>
</svg>
