<svg width="25" height="25" viewBox="0 0 25 25" fill="none" xmlns="http://www.w3.org/2000/svg">
<path d="M12.0694 0.530556C8.8669 0.530556 5.79557 1.80274 3.53107 4.06724C1.26657 6.33174 -0.00561523 9.40307 -0.00561523 12.6056C-0.00187134 14.6018 0.496748 16.566 1.44562 18.3224L1.42371 18.3045C2.03193 19.7343 1.98765 20.1243 1.89195 21.3183C1.82531 22.1506 1.59947 22.9999 1.31772 23.4789C1.0619 23.9118 0.857076 24.3599 0.857076 24.4739C0.857076 24.8259 2.89194 24.702 4.69335 24.2409C6.6969 23.728 6.97955 23.6752 8.48043 24.1336C8.49577 24.1386 8.51113 24.1435 8.52649 24.1484C8.59313 24.1689 8.64724 24.1841 8.71879 24.2065L8.7018 24.1931C9.79569 24.5137 10.9295 24.6778 12.0694 24.6806C15.2719 24.6806 18.3432 23.4084 20.6077 21.1439C22.8722 18.8794 24.1444 15.808 24.1444 12.6056C24.1444 9.40307 22.8722 6.33174 20.6077 4.06724C18.3432 1.80274 15.2719 0.530556 12.0694 0.530556Z" fill="#FEFEFE"/>
<path d="M16.5981 17.9235C17.5033 17.491 17.9242 16.9485 18.0695 16.0273C18.18 15.3251 18.129 15.1458 16.752 14.4825C15.0011 13.6395 15.1089 13.6355 14.3549 14.572C13.8853 15.1547 13.6836 15.3439 13.5311 15.3439C11.7467 14.8613 9.93095 13.4678 9.35403 11.6378C9.35403 11.5595 9.54365 11.2728 9.77576 11.0009C10.4587 10.2008 10.4591 10.1812 9.86342 8.71338C9.17738 7.02288 8.94527 7.03451 8.19796 7.00365C7.43321 6.9719 7.19126 7.09309 6.70737 7.75319C6.20648 8.43565 6.02759 8.98484 6.03206 9.82741C6.03743 10.8972 6.38805 11.7558 7.40325 13.1852C9.14607 15.6386 10.8464 16.9704 13.2958 17.8005C14.794 18.3076 15.7211 18.3421 16.5981 17.9235Z" fill="#47AD5D"/>
</svg>
